<?xml version="1.0" encoding="UTF-8"?>
<svg version="1.1" xmlns="http://www.w3.org/2000/svg" width="434" height="449">
<path d="M0 0 C143.22 0 286.44 0 434 0 C434 148.17 434 296.34 434 449 C290.78 449 147.56 449 0 449 C0 300.83 0 152.66 0 0 Z " fill="#1A0F2E" transform="translate(0,0)"/>
<path d="M0 0 C24 0 24 0 33 4 C36.64220543 8.55275679 37.12239679 12.99079483 37.16113281 18.68310547 C37.17074036 19.82464081 37.1803479 20.96617615 37.19024658 22.14230347 C37.19449646 23.3715152 37.19874634 24.60072693 37.203125 25.8671875 C37.20882507 27.13466827 37.21452515 28.40214905 37.22039795 29.70803833 C37.229844 32.38954253 37.23674309 35.07093492 37.24023438 37.75244141 C37.24571705 41.17769431 37.26974893 44.60254931 37.29820633 48.02767754 C37.32137888 51.30748379 37.32328508 54.58731086 37.328125 57.8671875 C37.3404718 59.09235077 37.3528186 60.31751404 37.36553955 61.57980347 C37.33684597 72.55432633 37.33684597 72.55432633 34 77 C31.89190674 78.14401245 31.89190674 78.14401245 30 79 C30.49738174 79.37302246 30.99476349 79.74604492 31.50721741 80.13037109 C35.67814813 83.91204454 37.41012978 87.08629657 37.74939632 92.77998352 C37.83087002 96.73223228 37.77224998 100.67339319 37.68359375 104.625 C37.67052177 106.33990449 37.66056516 108.0548353 37.65357971 109.76977539 C37.62697925 114.26179445 37.55832915 118.7522039 37.48065186 123.24359131 C37.40876741 127.83534984 37.37701469 132.42737103 37.34179688 137.01953125 C37.26694784 146.01372419 37.14763375 155.00672774 37 164 C33.04 164 29.08 164 25 164 C24.99120064 162.54420784 24.99120064 162.54420784 24.98222351 161.05900574 C24.92505704 151.92105115 24.85232755 142.78333593 24.76428509 133.64562511 C24.7195216 128.94760534 24.68027882 124.2496735 24.65356445 119.55151367 C24.6275909 115.01910335 24.58723115 110.4870303 24.53681374 105.95482826 C24.52010463 104.2240855 24.50861559 102.49328436 24.50238609 100.76247215 C24.49278868 98.34153097 24.46478329 95.92146051 24.43237305 93.50073242 C24.43452568 92.42287476 24.43452568 92.42287476 24.4367218 91.32324219 C24.35469283 87.00248957 24.22203374 86.22203374 21 83 C18.03 82.67 15.06 82.34 12 82 C12 109.06 12 136.12 12 164 C8.04 164 4.08 164 0 164 C0 109.88 0 55.76 0 0 Z " fill="#C3964F" transform="translate(332,245)"/>
<path d="M0 0 C24 0 24 0 33 4 C36.64220543 8.55275679 37.12239679 12.99079483 37.16113281 18.68310547 C37.17074036 19.82464081 37.1803479 20.96617615 37.19024658 22.14230347 C37.19449646 23.3715152 37.19874634 24.60072693 37.203125 25.8671875 C37.20882507 27.13466827 37.21452515 28.40214905 37.22039795 29.70803833 C37.229844 32.38954253 37.23674309 35.07093492 37.24023438 37.75244141 C37.24571705 41.17769431 37.26974893 44.60254931 37.29820633 48.02767754 C37.32137888 51.30748379 37.32328508 54.58731086 37.328125 57.8671875 C37.3404718 59.09235077 37.3528186 60.31751404 37.36553955 61.57980347 C37.33684597 72.55432633 37.33684597 72.55432633 34 77 C31.89190674 78.14401245 31.89190674 78.14401245 30 79 C30.49738174 79.37302246 30.99476349 79.74604492 31.50721741 80.13037109 C35.67814813 83.91204454 37.41012978 87.08629657 37.74939632 92.77998352 C37.83087002 96.73223228 37.77224998 100.67339319 37.68359375 104.625 C37.67052177 106.33990449 37.66056516 108.0548353 37.65357971 109.76977539 C37.62697925 114.26179445 37.55832915 118.7522039 37.48065186 123.24359131 C37.40876741 127.83534984 37.37701469 132.42737103 37.34179688 137.01953125 C37.26694784 146.01372419 37.14763375 155.00672774 37 164 C33.04 164 29.08 164 25 164 C24.99120064 162.54420784 24.99120064 162.54420784 24.98222351 161.05900574 C24.92505704 151.92105115 24.85232755 142.78333593 24.76428509 133.64562511 C24.7195216 128.94760534 24.68027882 124.2496735 24.65356445 119.55151367 C24.6275909 115.01910335 24.58723115 110.4870303 24.53681374 105.95482826 C24.52010463 104.2240855 24.50861559 102.49328436 24.50238609 100.76247215 C24.49278868 98.34153097 24.46478329 95.92146051 24.43237305 93.50073242 C24.43452568 92.42287476 24.43452568 92.42287476 24.4367218 91.32324219 C24.35469283 87.00248957 24.22203374 86.22203374 21 83 C18.03 82.67 15.06 82.34 12 82 C12 109.06 12 136.12 12 164 C8.04 164 4.08 164 0 164 C0 109.88 0 55.76 0 0 Z " fill="#C3964F" transform="translate(200,245)"/>
<path d="M0 0 C23 0 23 0 31 3 C35.1539783 7.36700283 36.12397343 10.00725573 36.17700195 15.9309082 C36.19625481 17.79843498 36.19625481 17.79843498 36.21589661 19.70368958 C36.22406428 21.06938276 36.23150796 22.43508044 36.23828125 23.80078125 C36.24235678 24.48775778 36.2464323 25.17473431 36.25063133 25.88252831 C36.27149176 29.51925735 36.28579304 33.15594867 36.29516602 36.79272461 C36.30622525 40.54556008 36.34061858 44.29780174 36.38033772 48.05042744 C36.40650911 50.93897082 36.41485829 53.82737289 36.41844749 56.7160244 C36.42331289 58.09910272 36.43492574 59.48217475 36.45348549 60.8651371 C36.47788099 62.80358175 36.47449171 64.74231532 36.4699707 66.6809082 C36.47583694 67.78296097 36.48170319 68.88501373 36.48774719 70.02046204 C35.88285414 73.71561773 34.62002307 75.36852874 32 78 C30.515 78.495 30.515 78.495 29 79 C29.78375 79.7425 30.5675 80.485 31.375 81.25 C35.77511119 85.85964029 36.29163982 89.17638265 36.22705078 95.43066406 C36.22734283 96.17251953 36.22763489 96.914375 36.22793579 97.67871094 C36.22654533 100.12446901 36.21099765 102.56992032 36.1953125 105.015625 C36.19158136 106.71384515 36.18873486 108.41206745 36.18673706 110.11029053 C36.17910857 114.57537807 36.15946681 119.04033506 36.1373291 123.50537109 C36.11685379 128.0634586 36.10773174 132.62156724 36.09765625 137.1796875 C36.07622018 146.11984896 36.04209368 155.05991361 36 164 C32.04 164 28.08 164 24 164 C23.98969254 163.01250259 23.97938507 162.02500519 23.96876526 161.00758362 C23.87120126 151.72194457 23.76848377 142.4363751 23.66066074 133.15084934 C23.60538912 128.37655052 23.55196248 123.60224562 23.50268555 118.82788086 C23.45510435 114.22428307 23.40276407 109.62076219 23.34705925 105.01725578 C23.3266073 103.25692587 23.30789902 101.49657485 23.29092598 99.73620796 C23.26694456 97.27922012 23.23688191 94.82237901 23.20532227 92.36547852 C23.19668907 91.26280891 23.19668907 91.26280891 23.18788147 90.13786316 C23.42956431 86.78273479 23.42956431 86.78273479 22 84 C18.7 83.67 15.4 83.34 12 83 C12 109.73 12 136.46 12 164 C8.04 164 4.08 164 0 164 C0 109.88 0 55.76 0 0 Z " fill="#C6984F" transform="translate(337,40)"/>
<path d="M0 0 C6.27 0 12.54 0 19 0 C19.44072077 7.89565668 19.87761462 15.79151982 20.3125 23.6875 C20.37936005 24.89938995 20.44622009 26.11127991 20.5151062 27.3598938 C21.32255687 42.03476072 22.09549337 56.71033175 22.796875 71.390625 C22.86210098 72.74978204 22.92734243 74.10893833 22.99259949 75.46809387 C23.3043315 81.97349103 23.61051193 88.47910567 23.90942383 94.98510742 C24.48933313 107.3326365 25.25519498 119.62944866 26.34849548 131.94236755 C26.97308896 139.15354126 27.25360581 146.25850355 27.125 153.5 C27.11597656 154.53640625 27.10695312 155.5728125 27.09765625 156.640625 C27.0749411 159.09386081 27.03914407 161.54697133 27 164 C23.04 164 19.08 164 15 164 C14.67 150.8 14.34 137.6 14 124 C11.03 124 8.06 124 5 124 C5.01160156 124.96035156 5.02320313 125.92070312 5.03515625 126.91015625 C5.13344456 139.29601871 4.61027837 151.63096518 4 164 C0.04 164 -3.92 164 -8 164 C-8.2896235 148.81862391 -7.48187704 133.79101298 -6.46157837 118.64700317 C-5.9825921 111.53681219 -5.5300204 104.42494836 -5.0859375 97.3125 C-5.03983904 96.57490007 -4.99374058 95.83730015 -4.94624519 95.07734871 C-3.69025203 74.83508433 -2.85403385 54.57365547 -2.04012299 34.30956459 C-1.92581828 31.46922416 -1.80978379 28.62895511 -1.69384384 25.78868103 C-1.61616622 23.85690318 -1.54227816 21.92497409 -1.46853638 19.99304199 C-1.198803 13.29141306 -0.74365968 6.66619527 0 0 Z " fill="#C6964E" transform="translate(143,245)"/>
<path d="M0 0 C4.29 0 8.58 0 13 0 C13.33 20.79 13.66 41.58 14 63 C15.6396875 52.6978125 15.6396875 52.6978125 17.3125 42.1875 C17.65063721 40.0633667 17.98877441 37.9392334 18.3371582 35.75073242 C20.23346631 23.83518763 22.12145427 11.91835807 24 0 C28.29 0 32.58 0 37 0 C35.63796472 10.02301563 33.96458464 19.94202434 32.0625 29.875 C31.80765036 31.21739245 31.5530926 32.55984034 31.29882812 33.90234375 C30.7916424 36.5785483 30.28294965 39.25445975 29.77319336 41.93017578 C25.83998255 62.60044721 22.97353619 79.7242334 26.70700073 100.56640625 C27.19425352 103.2877185 27.67091333 106.01070116 28.14477539 108.734375 C28.78486707 112.40886501 29.42852582 116.08269325 30.07617188 119.75585938 C31.38264566 127.16733819 32.67113346 134.58156742 33.9375 142 C34.14850342 143.1952832 34.35950684 144.39056641 34.5769043 145.62207031 C35.63782673 151.84986955 36.22085237 157.68228371 36 164 C32.04 164 28.08 164 24 164 C23.07203788 157.87474581 22.14870693 151.74881419 21.22900391 145.62231445 C20.91798922 143.55443135 20.6058784 141.4867127 20.29248047 139.41918945 C17.59860276 121.63872476 15.3023366 103.84310861 13 86 C12.67 111.74 12.34 137.48 12 164 C8.04 164 4.08 164 0 164 C0 109.88 0 55.76 0 0 Z " fill="#C3954F" transform="translate(71,245)"/>
<path d="M0 0 C3.96 0 7.92 0 12 0 C13.34670823 13.23785533 14.44005224 26.47604392 15.30224609 39.75488281 C15.41753662 41.47143066 15.41753662 41.47143066 15.53515625 43.22265625 C15.600979 44.24109619 15.66680176 45.25953613 15.73461914 46.30883789 C15.96502017 48.64527817 16.35313984 50.74889983 17 53 C17.05534912 51.98276855 17.11069824 50.96553711 17.16772461 49.91748047 C17.37715331 46.07431623 17.58814369 42.23123893 17.79956055 38.38818359 C17.89014321 36.73781561 17.98032525 35.08742557 18.07006836 33.43701172 C18.51322399 25.2918607 18.96859422 17.14748856 19.50390625 9.0078125 C19.57552979 7.91355957 19.64715332 6.81930664 19.72094727 5.69189453 C20 3 20 3 21 0 C24.96 0 28.92 0 33 0 C32.52722895 9.65518332 31.55458149 19.17923169 30.37109375 28.7734375 C30.21677887 30.02876282 30.06246399 31.28408813 29.9034729 32.57745361 C29.25466877 37.83055035 28.60123435 43.08297263 27.93579102 48.33398438 C25.70755841 65.98448017 23.64085088 83.12076214 25.9375 100.875 C26.02451172 101.63167969 26.11152344 102.38835937 26.20117188 103.16796875 C26.57074463 106.25047929 27.01562512 109.04687536 28 112 C28.32742492 114.50033575 28.61583758 116.99245098 28.875 119.5 C29.04647193 121.11072004 29.21837609 122.72139411 29.390625 124.33203125 C29.48537109 125.2235791 29.58011719 126.11512695 29.67773438 127.03369141 C30.03699618 130.34053303 30.41572099 133.64483028 30.796875 136.94921875 C30.93367676 138.14546875 31.07047852 139.34171875 31.21142578 140.57421875 C31.48315333 142.9482257 31.75748772 145.321936 32.03466797 147.6953125 C32.65457674 153.16518968 33.17528831 158.49435342 33 164 C29.04 164 25.08 164 21 164 C20.51076178 158.83423354 20.03229706 153.66756509 19.5625 148.5 C19.49274963 147.73334015 19.42299927 146.9666803 19.35113525 146.17678833 C18.35210899 135.08951299 17.59799247 124.03024115 17.29125977 112.8984375 C17.26475342 111.99222656 17.23824707 111.08601563 17.2109375 110.15234375 C17.19337402 109.36851318 17.17581055 108.58468262 17.15771484 107.77709961 C17.18942004 105.97547688 17.18942004 105.97547688 16 105 C15.92483154 106.66832886 15.92483154 106.66832886 15.84814453 108.37036133 C15.65623301 112.5958963 15.45679768 116.82105141 15.25537109 121.04614258 C15.17006449 122.85627202 15.08665526 124.66649212 15.00537109 126.47680664 C14.43925518 139.04667664 13.4579858 151.50157326 12 164 C8.04 164 4.08 164 0 164 C0.41556052 153.32439349 1.4575306 142.84071243 2.91113281 132.25634766 C3.74699921 126.12289554 4.3550143 120.0264112 4.75390625 113.84765625 C5.10619444 109.7711786 5.82057696 105.77833501 6.5234375 101.75 C9.74618784 83.15314558 7.10743412 65.20545615 4.5625 46.6875 C2.43708083 31.12374437 0.46161761 15.71307762 0 0 Z " fill="#C99B52" transform="translate(226,40)"/>
<path d="M0 0 C8.91 0 17.82 0 27 0 C27 2.97 27 5.94 27 9 C22.05 9 17.1 9 12 9 C12 30.12 12 51.24 12 73 C15.96 73 19.92 73 24 73 C24 75.97 24 78.94 24 82 C20.04 82 16.08 82 12 82 C12 106.09 12 130.18 12 155 C16.95 155 21.9 155 27 155 C27 157.97 27 160.94 27 164 C18.09 164 9.18 164 0 164 C0 109.88 0 55.76 0 0 Z " fill="#C99A50" transform="translate(67,40)"/>
<path d="M0 0 C12.21 0 24.42 0 37 0 C37 3.3 37 6.6 37 10 C32.71 10 28.42 10 24 10 C24 60.82 24 111.64 24 164 C20.37 164 16.74 164 13 164 C12.86743139 149.8270943 12.73693098 135.65417105 12.60884857 121.48122406 C12.5492711 114.8953511 12.48906313 108.30948524 12.42724609 101.72363281 C12.1407374 71.14836994 11.91105448 40.57673339 12 10 C8.04 10 4.08 10 0 10 C0 6.7 0 3.4 0 0 Z " fill="#CB9E56" transform="translate(266,245)"/>
<path d="M0 0 C3.96 0 7.92 0 12 0 C12 51.15 12 102.3 12 155 C15.96 155 19.92 155 24 155 C24 157.97 24 160.94 24 164 C16.08 164 8.16 164 0 164 C0 109.88 0 55.76 0 0 Z " fill="#C9994F" transform="translate(124,40)"/>
<path d="M0 0 C3.96 0 7.92 0 12 0 C12 54.12 12 108.24 12 164 C8.04 164 4.08 164 0 164 C0 109.88 0 55.76 0 0 Z " fill="#C8994F" transform="translate(290,40)"/>
<path d="M0 0 C3.96 0 7.92 0 12 0 C12 54.12 12 108.24 12 164 C8.04 164 4.08 164 0 164 C0 109.88 0 55.76 0 0 Z " fill="#C4964F" transform="translate(182,40)"/>
<path d="M0 0 C3.3 0 6.6 0 10 0 C12.70155783 2.70155783 12.25869932 4.10793367 12.2746582 7.88671875 C12.28419022 9.12139893 12.29372223 10.3560791 12.30354309 11.62817383 C12.3032817 12.98128284 12.30234481 14.33439187 12.30078125 15.6875 C12.30466659 17.06990692 12.30900092 18.45231264 12.31376648 19.8347168 C12.32123333 22.73327503 12.32093386 25.63171148 12.31567383 28.53027344 C12.30987462 32.2496998 12.32681817 35.96862892 12.3500185 39.68797302 C12.36472974 42.54295784 12.36563122 45.39782213 12.36250877 48.25283813 C12.36302318 49.62440985 12.36828328 50.99598811 12.37832069 52.36752319 C12.39061757 54.28273745 12.38197652 56.19805189 12.37231445 58.11328125 C12.37294388 59.20423096 12.3735733 60.29518066 12.3742218 61.41918945 C12.18898201 62.69669067 12.18898201 62.69669067 12 64 C9 66 9 66 0 67 C0 44.89 0 22.78 0 0 Z " fill="#21152F" transform="translate(344,255)"/>
<path d="M0 0 C3.3 0 6.6 0 10 0 C12.70155783 2.70155783 12.25869932 4.10793367 12.2746582 7.88671875 C12.28419022 9.12139893 12.29372223 10.3560791 12.30354309 11.62817383 C12.3032817 12.98128284 12.30234481 14.33439187 12.30078125 15.6875 C12.30466659 17.06990692 12.30900092 18.45231264 12.31376648 19.8347168 C12.32123333 22.73327503 12.32093386 25.63171148 12.31567383 28.53027344 C12.30987462 32.2496998 12.32681817 35.96862892 12.3500185 39.68797302 C12.36472974 42.54295784 12.36563122 45.39782213 12.36250877 48.25283813 C12.36302318 49.62440985 12.36828328 50.99598811 12.37832069 52.36752319 C12.39061757 54.28273745 12.38197652 56.19805189 12.37231445 58.11328125 C12.37294388 59.20423096 12.3735733 60.29518066 12.3742218 61.41918945 C12.18898201 62.69669067 12.18898201 62.69669067 12 64 C9 66 9 66 0 67 C0 44.89 0 22.78 0 0 Z " fill="#21152F" transform="translate(212,255)"/>
<path d="M0 0 C2.97 0 5.94 0 9 0 C12.50063563 3.50063563 12.3774543 4.07989113 12.38818359 8.80078125 C12.39764008 9.9921167 12.40709656 11.18345215 12.4168396 12.41088867 C12.41076691 13.69842041 12.40469421 14.98595215 12.3984375 16.3125 C12.40045855 17.64624185 12.40337026 18.97998263 12.40713501 20.3137207 C12.41155696 23.10801726 12.4051319 25.90202598 12.39111328 28.69628906 C12.37402094 32.27774465 12.38386289 35.85852582 12.40183067 39.43995667 C12.41267231 42.19377726 12.40922054 44.94743801 12.4014473 47.70126343 C12.39847329 49.66388385 12.40758292 51.62651048 12.4168396 53.58911133 C12.40738312 54.78044678 12.39792664 55.97178223 12.38818359 57.19921875 C12.38579681 58.24940186 12.38341003 59.29958496 12.38095093 60.3815918 C12 63 12 63 9 66 C6.03 66 3.06 66 0 66 C0 44.22 0 22.44 0 0 Z " fill="#1D112E" transform="translate(349,50)"/>
<path d="M0 0 C0.33 0 0.66 0 1 0 C5.48166352 75.15072433 5.48166352 75.15072433 5 101 C2.03 101 -0.94 101 -4 101 C-4.20266369 76.7583045 -3.16737835 52.67850055 -1.60498047 28.49552917 C-0.99155289 19.00059455 -0.46536428 9.5032284 0 0 Z " fill="#28192E" transform="translate(152,260)"/>
<path d="M0 0 C2.02168235 4.0433647 2.35927761 6.32129345 2.625 10.75 C2.69976562 11.92046875 2.77453125 13.0909375 2.8515625 14.296875 C2.90054688 15.18890625 2.94953125 16.0809375 3 17 C2.67 17 2.34 17 2 17 C1.67 38.45 1.34 59.9 1 82 C0.67 82 0.34 82 0 82 C0 54.94 0 27.88 0 0 Z " fill="#674837" transform="translate(83,327)"/>
<path d="M0 0 C0.33 0 0.66 0 1 0 C2.12513633 8.01659634 2.09579384 15.92138585 2 24 C1.01 24 0.02 24 -1 24 C-1.18451025 7.1070615 -1.18451025 7.1070615 0 0 Z " fill="#50352E" transform="translate(242,137)"/>
<path d="M0 0 C2.02168235 4.0433647 2.35927761 6.32129345 2.625 10.75 C2.69976562 11.92046875 2.77453125 13.0909375 2.8515625 14.296875 C2.90054688 15.18890625 2.94953125 16.0809375 3 17 C2.67 17 2.34 17 2 17 C1.67 18.65 1.34 20.3 1 22 C0.67 22 0.34 22 0 22 C0 14.74 0 7.48 0 0 Z " fill="#503329" transform="translate(83,327)"/>
<path d="M0 0 C1.98 0 3.96 0 6 0 C6 1.65 6 3.3 6 5 C4.02 5 2.04 5 0 5 C0 3.35 0 1.7 0 0 Z " fill="#AE8349" transform="translate(330,221)"/>
<path d="M0 0 C1.98 0 3.96 0 6 0 C6 1.65 6 3.3 6 5 C4.02 5 2.04 5 0 5 C0 3.35 0 1.7 0 0 Z " fill="#AE8349" transform="translate(320,221)"/>
<path d="M0 0 C1.98 0 3.96 0 6 0 C6 1.65 6 3.3 6 5 C4.02 5 2.04 5 0 5 C0 3.35 0 1.7 0 0 Z " fill="#AE8349" transform="translate(310,221)"/>
<path d="M0 0 C1.98 0 3.96 0 6 0 C6 1.65 6 3.3 6 5 C4.02 5 2.04 5 0 5 C0 3.35 0 1.7 0 0 Z " fill="#AE8349" transform="translate(300,221)"/>
<path d="M0 0 C1.98 0 3.96 0 6 0 C6 1.65 6 3.3 6 5 C4.02 5 2.04 5 0 5 C0 3.35 0 1.7 0 0 Z " fill="#AE8349" transform="translate(290,221)"/>
<path d="M0 0 C1.98 0 3.96 0 6 0 C6 1.65 6 3.3 6 5 C4.02 5 2.04 5 0 5 C0 3.35 0 1.7 0 0 Z " fill="#AE8349" transform="translate(280,221)"/>
<path d="M0 0 C1.98 0 3.96 0 6 0 C6 1.65 6 3.3 6 5 C4.02 5 2.04 5 0 5 C0 3.35 0 1.7 0 0 Z " fill="#AE8349" transform="translate(270,221)"/>
<path d="M0 0 C1.98 0 3.96 0 6 0 C6 1.65 6 3.3 6 5 C4.02 5 2.04 5 0 5 C0 3.35 0 1.7 0 0 Z " fill="#AE8349" transform="translate(260,221)"/>
<path d="M0 0 C1.98 0 3.96 0 6 0 C6 1.65 6 3.3 6 5 C4.02 5 2.04 5 0 5 C0 3.35 0 1.7 0 0 Z " fill="#AE8349" transform="translate(250,221)"/>
<path d="M0 0 C1.98 0 3.96 0 6 0 C6 1.65 6 3.3 6 5 C4.02 5 2.04 5 0 5 C0 3.35 0 1.7 0 0 Z " fill="#AE8349" transform="translate(240,221)"/>
<path d="M0 0 C1.98 0 3.96 0 6 0 C6 1.65 6 3.3 6 5 C4.02 5 2.04 5 0 5 C0 3.35 0 1.7 0 0 Z " fill="#AE8349" transform="translate(230,221)"/>
<path d="M0 0 C1.98 0 3.96 0 6 0 C6 1.65 6 3.3 6 5 C4.02 5 2.04 5 0 5 C0 3.35 0 1.7 0 0 Z " fill="#AE8349" transform="translate(220,221)"/>
<path d="M0 0 C1.98 0 3.96 0 6 0 C6 1.65 6 3.3 6 5 C4.02 5 2.04 5 0 5 C0 3.35 0 1.7 0 0 Z " fill="#AE8349" transform="translate(210,221)"/>
<path d="M0 0 C1.98 0 3.96 0 6 0 C6 1.65 6 3.3 6 5 C4.02 5 2.04 5 0 5 C0 3.35 0 1.7 0 0 Z " fill="#AE8349" transform="translate(200,221)"/>
<path d="M0 0 C1.98 0 3.96 0 6 0 C6 1.65 6 3.3 6 5 C4.02 5 2.04 5 0 5 C0 3.35 0 1.7 0 0 Z " fill="#AE8349" transform="translate(190,221)"/>
<path d="M0 0 C1.98 0 3.96 0 6 0 C6 1.65 6 3.3 6 5 C4.02 5 2.04 5 0 5 C0 3.35 0 1.7 0 0 Z " fill="#AE8349" transform="translate(180,221)"/>
<path d="M0 0 C1.98 0 3.96 0 6 0 C6 1.65 6 3.3 6 5 C4.02 5 2.04 5 0 5 C0 3.35 0 1.7 0 0 Z " fill="#AE8349" transform="translate(170,221)"/>
<path d="M0 0 C1.98 0 3.96 0 6 0 C6 1.65 6 3.3 6 5 C4.02 5 2.04 5 0 5 C0 3.35 0 1.7 0 0 Z " fill="#AE8349" transform="translate(160,221)"/>
<path d="M0 0 C1.98 0 3.96 0 6 0 C6 1.65 6 3.3 6 5 C4.02 5 2.04 5 0 5 C0 3.35 0 1.7 0 0 Z " fill="#AE8349" transform="translate(150,221)"/>
<path d="M0 0 C1.98 0 3.96 0 6 0 C6 1.65 6 3.3 6 5 C4.02 5 2.04 5 0 5 C0 3.35 0 1.7 0 0 Z " fill="#AE8349" transform="translate(140,221)"/>
<path d="M0 0 C1.98 0 3.96 0 6 0 C6 1.65 6 3.3 6 5 C4.02 5 2.04 5 0 5 C0 3.35 0 1.7 0 0 Z " fill="#AE8349" transform="translate(130,221)"/>
<path d="M0 0 C1.98 0 3.96 0 6 0 C6 1.65 6 3.3 6 5 C4.02 5 2.04 5 0 5 C0 3.35 0 1.7 0 0 Z " fill="#AE8349" transform="translate(120,221)"/>
<path d="M0 0 C1.98 0 3.96 0 6 0 C6 1.65 6 3.3 6 5 C4.02 5 2.04 5 0 5 C0 3.35 0 1.7 0 0 Z " fill="#AE8349" transform="translate(110,221)"/>
<path d="M0 0 C1.98 0 3.96 0 6 0 C6 1.65 6 3.3 6 5 C4.02 5 2.04 5 0 5 C0 3.35 0 1.7 0 0 Z " fill="#AE8349" transform="translate(100,221)"/>
</svg>
